<?xml version="1.0" encoding="UTF-8"?>
<svg width="100px" height="40px" viewBox="0 0 100 40" version="1.1" xmlns="http://www.w3.org/2000/svg" xmlns:xlink="http://www.w3.org/1999/xlink">
    <title>UBS Logo</title>
    <g id="UBS-Logo" stroke="none" stroke-width="1" fill="none" fill-rule="evenodd">
        <path d="M20,5 L20,35 L5,35 L5,5 L20,5 Z M50,5 L50,35 L35,35 L35,5 L50,5 Z M80,5 L80,35 L65,35 L65,5 L80,5 Z" id="Keys" fill="#EC0016"></path>
        <path d="M30,5 L30,35 L20,35 L20,5 L30,5 Z M60,5 L60,35 L50,35 L50,5 L60,5 Z M90,5 L90,35 L80,35 L80,5 L90,5 Z" id="Spaces" fill="#000000"></path>
    </g>
</svg>
